<?xml version="1.0" encoding="UTF-8"?>
<svg version="1.1" xmlns="http://www.w3.org/2000/svg" width="512" height="512">
<path d="M0 0 C4.63535813 2.15213056 8.01334219 5.23793392 10 10 C10.47845787 13.80651159 10.37844376 17.54638798 10.25 21.375 C10.23195313 22.39722656 10.21390625 23.41945313 10.1953125 24.47265625 C10.14839491 26.98274749 10.08276729 29.49087764 10 32 C11.00933594 32.07476562 12.01867187 32.14953125 13.05859375 32.2265625 C61.39263058 36.37942203 107.46290216 60.05954921 139.33203125 96.6796875 C151.71353247 111.57123752 161.83825907 127.47028828 170 145 C170.30824707 145.6595166 170.61649414 146.3190332 170.93408203 146.99853516 C174.86864575 155.56793502 177.82587779 164.26356519 180.25 173.375 C180.60118896 174.68223022 180.60118896 174.68223022 180.95947266 176.01586914 C181.71316102 178.99793575 182.35905067 181.99155022 183 185 C183.25892029 186.15463242 183.51784058 187.30926483 183.78460693 188.49888611 C186.87915276 203.8664455 186.30634548 219.44055201 186.16616821 235.0325222 C186.12038166 240.27261172 186.1073393 245.51249471 186.1003418 250.75276184 C186.07705824 265.64076717 186.0371059 280.52826637 185.90771484 295.41577148 C185.8362405 303.670213 185.80563352 311.92381354 185.81800461 320.1785658 C185.82284413 324.5184712 185.80883108 328.85617658 185.74346924 333.19563866 C185.41509253 355.86249651 188.26412022 374.42794629 197.00907898 395.43680286 C198 398 198 398 198 400 C198.65226562 399.95359375 199.30453125 399.9071875 199.9765625 399.859375 C205.8872745 399.6152748 209.42050868 399.85665071 214 404 C217.62833663 407.81930172 218.31000458 410.88279006 218.5 416 C218.31000458 421.11720994 217.62833663 424.18069828 214 428 C209.40909762 431.63225509 206.41814918 432.50044319 200.59423828 432.50336456 C199.86648886 432.50917833 199.13873943 432.51499209 198.388937 432.52098203 C195.94905796 432.53558615 193.51018429 432.52169555 191.0703125 432.50793457 C189.30399054 432.51254334 187.5376724 432.51889609 185.7713623 432.52684355 C180.91652428 432.54356335 176.0620002 432.53527844 171.20716095 432.52289867 C165.97190712 432.51386137 160.73670789 432.52781136 155.50146484 432.53881836 C145.24518846 432.55662226 134.98902904 432.55275525 124.73274803 432.5411678 C116.39864516 432.53214111 108.06457511 432.53090616 99.73046875 432.53526306 C98.54515942 432.53587599 97.35985008 432.53648893 96.13862228 432.53712043 C93.73082987 432.53839931 91.32303746 432.53969616 88.91524506 432.5410108 C66.32745132 432.55242208 43.73972248 432.53929428 21.15193939 432.51780933 C1.76271876 432.49993787 -17.62640609 432.50304182 -37.015625 432.52148438 C-59.52156146 432.54288139 -82.02744102 432.55132339 -104.53338623 432.53903532 C-106.93241373 432.5377611 -109.33144123 432.53650362 -111.73046875 432.53526306 C-113.50110624 432.53433741 -113.50110624 432.53433741 -115.30751419 432.53339306 C-123.63340875 432.52993665 -131.95926727 432.53577476 -140.28515625 432.54518127 C-150.42906404 432.55638964 -160.57284799 432.55338565 -170.71674156 432.5320583 C-175.89417717 432.52153228 -181.07140616 432.51745253 -186.24884033 432.53065491 C-190.98614249 432.54255242 -195.72304602 432.53605989 -200.46031189 432.5147447 C-202.17624008 432.51026742 -203.89220178 432.51257006 -205.60810852 432.52224785 C-207.93729994 432.53437938 -210.26511893 432.52197117 -212.59423828 432.50336456 C-213.88886993 432.50271515 -215.18350159 432.50206574 -216.5173645 432.50139666 C-221.75697621 431.74704732 -224.7948725 429.26855526 -228.375 425.5 C-230.77303575 420.33499991 -230.75381535 415.5997712 -230 410 C-227.7343461 405.12013007 -224.84534827 402.33294546 -220 400 C-216.63052009 399.68726384 -213.37159306 399.80225938 -210 400 C-209.83139591 399.32061906 -209.66279182 398.64123812 -209.48907852 397.94126987 C-208.26400686 393.20764761 -206.95773211 388.67041066 -204.98724365 384.18968201 C-197.5994684 366.95628358 -197.92143118 350.1162098 -198.11864567 331.74578404 C-198.15607876 327.34219075 -198.14381416 322.93872486 -198.13641357 318.53501892 C-198.12896849 310.20595103 -198.15837082 301.87751395 -198.20463252 293.54858631 C-198.28700546 278.66781713 -198.32397552 263.78703804 -198.32002425 248.9060449 C-198.32033273 243.70901092 -198.34294919 238.51270719 -198.38303542 233.31583661 C-198.71734159 185.57366832 -187.40876262 141.72680582 -157 104 C-156.29375488 103.12021484 -156.29375488 103.12021484 -155.57324219 102.22265625 C-145.34208814 89.57531516 -134.03268816 78.71868453 -121 69 C-119.75476563 68.06220703 -119.75476563 68.06220703 -118.484375 67.10546875 C-90.77743968 46.98495619 -56.33557389 33.69801926 -22 32 C-22.02094727 31.36497559 -22.04189453 30.72995117 -22.06347656 30.07568359 C-22.14704581 27.17561924 -22.19878774 24.27580884 -22.25 21.375 C-22.28351563 20.37597656 -22.31703125 19.37695312 -22.3515625 18.34765625 C-22.43315123 12.18770715 -22.1132688 8.68372214 -18 4 C-12.72867143 -1.00776214 -6.89190982 -0.92775709 0 0 Z M28.625 103.625 C26.41716765 108.21049796 26.21666602 111.99808615 27 117 C29.61235241 122.76894489 33.7083776 125.00804508 39 128 C47.87019632 133.11752056 56.18942735 138.3216021 64 145 C64.91458984 145.71542969 64.91458984 145.71542969 65.84765625 146.4453125 C82.5111314 159.73054326 93.10146684 180.86412076 98.08886719 201.13989258 C99.60009529 206.86985193 101.94777362 210.94538847 107.0078125 214.3515625 C112.26155287 216.06160348 117.44403033 215.74917058 122.375 213.375 C126.80485568 209.36703533 129.22314445 206.2408693 129.5625 200.1875 C128.38479058 173.67119396 110.96775905 149.06002407 94 130 C93.06994141 128.94232422 93.06994141 128.94232422 92.12109375 127.86328125 C81.12780572 116.13218865 67.1769807 107.33456336 53 100 C51.96230469 99.43410156 50.92460937 98.86820312 49.85546875 98.28515625 C41.43168562 94.49387766 34.60458691 97.01598289 28.625 103.625 Z " fill="#930EF6" transform="translate(262,16)"/>
<path d="M0 0 C0.73250977 -0.00700928 1.46501953 -0.01401855 2.21972656 -0.02124023 C4.62604382 -0.03875584 7.03117209 -0.02722142 9.4375 -0.01367188 C11.11849186 -0.01636866 12.79948221 -0.02025264 14.48046875 -0.02526855 C17.99754743 -0.03115485 21.5142188 -0.02262896 25.03125 -0.00390625 C29.53052189 0.01888312 34.02883927 0.00575532 38.52807617 -0.01819611 C41.99746847 -0.03267779 45.46663594 -0.02803731 48.93603516 -0.01768494 C50.59456496 -0.01502418 52.25311544 -0.01826444 53.91162109 -0.02760315 C56.23329421 -0.03780834 58.55344011 -0.02221466 60.875 0 C62.19371094 0.00318237 63.51242187 0.00636475 64.87109375 0.00964355 C70.16529367 0.76365389 73.1949097 3.20958834 76.8125 7.01757812 C79.21053575 12.18257821 79.19131535 16.91780692 78.4375 22.51757812 C76.12838725 27.49105174 73.16511365 29.84944159 68.4375 32.51757812 C64.87109375 33.0255127 64.87109375 33.0255127 60.875 33.03515625 C60.14249023 33.04216553 59.40998047 33.0491748 58.65527344 33.05639648 C56.24895618 33.07391209 53.84382791 33.06237767 51.4375 33.04882812 C49.75650814 33.05152491 48.07551779 33.05540889 46.39453125 33.0604248 C42.87745257 33.0663111 39.3607812 33.05778521 35.84375 33.0390625 C31.34447811 33.01627313 26.84616073 33.02940093 22.34692383 33.05335236 C18.87753153 33.06783404 15.40836406 33.06319356 11.93896484 33.05284119 C10.28043504 33.05018043 8.62188456 33.05342069 6.96337891 33.0627594 C4.64170579 33.07296459 2.32155989 33.05737091 0 33.03515625 C-1.31871094 33.03197388 -2.63742188 33.0287915 -3.99609375 33.0255127 C-9.29029367 32.27150236 -12.3199097 29.82556791 -15.9375 26.01757812 C-18.33553575 20.85257804 -18.31631535 16.11734933 -17.5625 10.51757812 C-13.97822937 2.79761062 -8.2761305 0.01997233 0 0 Z " fill="#B61BEF" transform="translate(225.5625,463.482421875)"/>
</svg>
